<?xml version="1.0" encoding="UTF-8"?>
<svg width="700pt" height="700pt" version="1.1" viewBox="0 0 700 700" xmlns="http://www.w3.org/2000/svg" xmlns:xlink="http://www.w3.org/1999/xlink">
 <defs>
  <symbol id="x" overflow="visible">
   <path d="m0.03125 0h-0.03125v-0.015625-0.015625c0.0078125-0.0078125 0.019531-0.015625 0.03125-0.015625v0.015625h-0.015625v0.015625 0.015625h0.015625v-0.015625z"/>
  </symbol>
  <symbol id="c" overflow="visible">
   <path d="m0.03125-0.015625c0-0.0078125-0.0078125-0.015625-0.015625-0.015625v0.015625 0.015625h-0.015625v-0.03125h0.015625 0.015625z"/>
  </symbol>
  <symbol id="a" overflow="visible">
   <path d="m0.03125-0.015625h-0.015625v0.015625h0.015625v-0.015625 0.015625h-0.015625-0.015625v-0.015625l0.015625-0.015625c0.0078125 0 0.015625 0.0078125 0.015625 0.015625zm0 0h-0.015625v-0.015625 0.015625z"/>
  </symbol>
  <symbol id="b" overflow="visible">
   <path d="m0.015625-0.015625v0.015625l0.015625-0.015625zm0.015625 0v0.015625h-0.015625-0.015625v-0.015625h0.015625 0.015625-0.015625v-0.015625h-0.015625v0.015625-0.015625h0.015625 0.015625v0.015625z"/>
  </symbol>
  <symbol id="e" overflow="visible">
   <path d="m0.015625-0.046875v0.015625h0.015625-0.015625v0.015625 0.015625h0.015625-0.015625-0.015625v-0.015625-0.03125z"/>
  </symbol>
  <symbol id="i" overflow="visible">
   <path d="m0.03125-0.03125v-0.015625 0.046875h-0.015625-0.015625v-0.015625l0.015625-0.015625h0.015625zm-0.015625 0.03125 0.015625-0.015625h-0.015625v-0.015625 0.015625 0.015625z"/>
  </symbol>
  <symbol id="m" overflow="visible">
   <path d="m0.015625 0h0.015625v-0.015625c0-0.0078125-0.0078125-0.015625-0.015625-0.015625v0.015625 0.015625zm0-0.03125h0.015625v0.015625 0.015625h-0.015625-0.015625v-0.046875h0.015625z"/>
  </symbol>
  <symbol id="h" overflow="visible">
   <path d="m0-0.03125h0.015625v0.015625l0.015625-0.015625-0.015625 0.03125v0.015625h-0.015625v-0.015625h0.015625z"/>
  </symbol>
  <symbol id="l" overflow="visible">
   <path d="m0.03125-0.03125h-0.015625v0.015625 0.015625h0.015625v-0.015625-0.015625zm0-0.015625v0.015625c0.0078125 0 0.015625 0.0078125 0.015625 0.015625l-0.015625 0.015625h-0.03125v-0.015625-0.015625c0.0078125-0.0078125 0.019531-0.015625 0.03125-0.015625z"/>
  </symbol>
  <symbol id="w" overflow="visible">
   <path d="m0-0.046875h0.015625v0.046875h-0.015625z"/>
  </symbol>
  <symbol id="k" overflow="visible">
   <path d="m0-0.046875h0.015625v0.03125l0.015625-0.015625-0.015625 0.015625 0.015625 0.015625-0.015625-0.015625v0.015625h-0.015625z"/>
  </symbol>
  <symbol id="g" overflow="visible">
   <path d="m0.03125-0.03125v0.015625c0-0.0078125-0.0078125-0.015625-0.015625-0.015625v0.015625h0.015625v0.015625h-0.015625-0.015625v-0.015625 0.015625h0.015625v-0.015625h-0.015625v-0.015625h0.015625 0.015625z"/>
  </symbol>
  <symbol id="f" overflow="visible">
   <path d="m0.03125-0.015625v0.015625-0.015625h-0.015625v-0.015625 0.015625 0.015625h-0.015625v-0.03125h0.015625 0.015625v0.015625z"/>
  </symbol>
  <symbol id="j" overflow="visible">
   <path d="m0-0.046875h0.015625c0.0078125 0 0.015625 0.0078125 0.015625 0.015625v0.015625h-0.015625v0.015625h-0.015625zm0.015625 0.015625v0.015625h0.015625v-0.015625h-0.015625z"/>
  </symbol>
  <symbol id="d" overflow="visible">
   <path d="m0.015625-0.03125v0.015625 0.015625l0.015625-0.015625h-0.015625v-0.015625zm0 0c0.0078125 0 0.015625 0.0078125 0.015625 0.015625v0.015625h-0.015625-0.015625v-0.015625l0.015625-0.015625z"/>
  </symbol>
  <symbol id="v" overflow="visible">
   <path d="m0-0.03125h0.015625v0.015625l0.015625-0.015625v0.03125h-0.015625z"/>
  </symbol>
  <symbol id="u" overflow="visible">
   <path d="m0-0.03125h0.015625v0.03125h-0.015625zm0-0.015625h0.015625v0.015625h-0.015625z"/>
  </symbol>
  <symbol id="t" overflow="visible">
   <path d="m0.03125-0.046875v0.015625h-0.015625 0.015625-0.015625v0.03125h-0.015625v-0.03125l0.015625-0.015625z"/>
  </symbol>
  <symbol id="s" overflow="visible">
   <path d="m0.03125-0.03125h0.015625v0.015625 0.015625-0.015625-0.015625c-0.011719 0-0.015625 0.0078125-0.015625 0.015625v0.015625-0.015625h-0.015625v-0.015625 0.015625 0.015625h-0.015625v-0.03125h0.015625 0.015625z"/>
  </symbol>
  <symbol id="r" overflow="visible">
   <path d="m0.03125-0.015625v0.015625-0.015625h-0.015625v-0.015625 0.015625 0.015625h-0.015625v-0.046875h0.015625v0.015625h0.015625v0.015625z"/>
  </symbol>
  <symbol id="q" overflow="visible">
   <path d="m0-0.046875h0.015625l0.015625 0.03125v-0.03125h0.015625v0.046875h-0.015625l-0.015625-0.03125v0.03125h-0.015625z"/>
  </symbol>
  <symbol id="p" overflow="visible">
   <path d="m0-0.015625v-0.015625h0.015625v0.015625 0.015625l0.015625-0.015625v-0.015625 0.03125h-0.015625-0.015625v-0.015625z"/>
  </symbol>
  <symbol id="o" overflow="visible">
   <path d="m0-0.03125h0.015625v0.03125c0 0.0078125-0.0078125 0.015625-0.015625 0.015625zm0-0.015625h0.015625v0.015625h-0.015625z"/>
  </symbol>
  <symbol id="n" overflow="visible">
   <path d="m0.03125-0.03125v0.015625c0-0.0078125-0.0078125-0.015625-0.015625-0.015625v0.015625 0.015625h0.015625v-0.015625 0.015625h-0.015625-0.015625v-0.015625l0.015625-0.015625h0.015625z"/>
  </symbol>
 </defs>
 <g>
  <path d="m97.484 407.93h34.535v-64.836c0-3.6836 5.6016-3.6836 5.6016 0v64.836h416.38v-67.281c0-3.6836 5.6016-3.6836 5.6016 0v67.281h38.57c7.5469 0 9.7891 2.8398 9.7188 10.207-0.039063 4.0117-1.0391 7.2812-8.4102 10.184-8.5391 3.3672-19.785 3.5195-28.93 3.5195h-445.45c-9.1445 0-20.391-0.15234-28.93-3.5195-7.1133-2.8047-8.293-5.9453-8.4023-9.7695-0.21094-7.5312 1.9766-10.625 9.7109-10.625zm167.86-135.84c-1.2266 0.035156-2.3672 0.035156-3.4375 0h-26.055c-0.41406 4.6953-1.25 8.3828-2.3242 11.035-2.9531 7.2969-8.5898 7.7305-11.664 0.27344-1.0938-2.6562-2.0156-6.4219-2.6914-11.309h-13.582c-0.73438 11.75-2.4766 19.582-4.6172 23.328-2.3672 4.1367-5.9336 4.2461-8.5352 0.25-2.3711-3.6367-4.5977-11.465-6.0664-23.578h-16.367c-0.39453 3.9375-0.85938 13.359-2.5195 21.633-3.6328 18.086-13.539 20.906-17.805 1.3633-1.4531-6.6641-2.3281-15.148-3.043-22.996h-61.145c-2.2109 0-2.2109-3.3594 0-3.3594h60.84c-0.60547-6.4961-1.9219-30.84-10.609-31.832-2.1914-0.25-1.8125-3.5859 0.37891-3.332 11.707 1.3359 12.77 26.289 13.59 35.164h17.293c1.5625-14.562 3.457-31.332 10.98-31.098 8.4141 0.26172 10.629 24.465 11.391 31.098h13.062c0.35547-6.6875 0.82031-25.965 10.02-24.934 6.6211 0.74219 8.7344 17.051 9.6914 24.934h10.602c0.21484-3.0234 0.45703-6.3516 1.1562-9.293 2.0625-8.6719 9.875-6.9023 13.77 0.10156 2.0625 3.7109 3.957 6.1094 6.5273 7.4922 1.918 1.0312 4.293 1.5586 7.4688 1.6992h16.602v-30.512c-65.512 1.625-130.78-15.613-189.49-44.043-1.9844-0.95703-0.52734-3.9766 1.457-3.0195 58.266 28.207 123.02 45.34 188.04 43.711v-12.414c0-10.785 8.8125-19.602 19.602-19.602h95.906c10.785 0 19.602 8.8125 19.602 19.602v12.398c71.945 1.1602 128.31-13.473 191.94-45.797 1.9688-0.99219 3.4766 2 1.5078 2.9922-64.094 32.562-120.98 47.312-193.45 46.152v30.527h18.434c3.1758-0.14062 5.5508-0.66406 7.4688-1.6992 2.5703-1.3828 4.4648-3.7812 6.5273-7.4922 1.6289-2.9297 4.5117-6.3125 8.2344-5.9297 6.2734 0.64844 6.3594 10.488 6.6914 15.117h10.602c0.96094-7.8828 3.0742-24.188 9.6914-24.934 9.1992-1.0352 9.668 18.246 10.02 24.934h13.062c0.58594-5.0977 1.4531-12.074 2.8672-18.02 3.9219-16.48 12.926-18.324 16.848-0.62109 1.2344 5.582 1.9766 12.316 2.6562 18.641h17.293c0.82031-8.875 1.8828-33.828 13.59-35.164 2.1914-0.25 2.5742 3.082 0.37891 3.332-8.6875 0.99219-10.008 25.336-10.609 31.832h59.008c2.2109 0 2.2109 3.3594 0 3.3594h-59.312c-0.71484 7.8477-1.5859 16.332-3.043 22.996-3.4688 15.906-12.887 19.344-17.109 1.707-1.9141-7.9922-2.3906-16.516-3.2148-24.703h-16.367c-1.4727 12.113-3.6992 19.941-6.0664 23.578-2.6016 3.9961-6.168 3.8867-8.5352-0.25-2.1445-3.7461-3.8828-11.582-4.6172-23.328h-13.582c-0.67969 4.8867-1.5977 8.6523-2.6914 11.309-3.0703 7.4531-8.707 7.0195-11.664-0.27344-1.0742-2.6484-1.9102-6.3359-2.3242-11.035h-44.234v30.219c72.852 0.19922 128.75 13.336 193.55 45.785 1.9688 0.98437 0.47266 3.9766-1.4961 2.9922-64.324-32.215-119.72-45.23-192.05-45.43v12.707c0 10.785-8.8125 19.602-19.602 19.602h-95.906c-10.785 0-19.602-8.8125-19.602-19.602v-12.75c-58.422-0.39844-135.62 18.344-188.05 43.672-1.9844 0.95703-3.4414-2.0625-1.457-3.0195 52.902-25.555 130.57-44.398 189.51-44v-30.176h-12.91zm-14.68-3.3594c-2.2578-1.7383-4.0586-4.1953-5.9297-7.5625-2.0195-3.6289-6.1602-6.9023-7.5742-0.95703-0.64062 2.6914-0.86328 5.75-1.0625 8.5156h14.57zm-31.914 0c-0.87891-7.1875-2.7344-21.156-6.6797-21.598-5.457-0.61328-6.0625 17.184-6.2969 21.598zm-32.77 0c-0.50391-4.3672-3.1172-27.598-8.1055-27.75-4.4219-0.13672-6.1133 14.695-7.5156 27.75zm-35.984 3.3594c0.69531 7.6211 1.5508 15.816 2.9609 22.285 3.2812 15.039 8.3867 13.777 11.172-0.58984 1.5938-8.2266 2.1875-18.453 2.5039-21.695h-16.641zm39.75 0c1.3984 11.344 3.4062 18.543 5.5 21.754 1.2227 1.8789 1.707 1.8398 2.8125-0.09375 1.9062-3.332 3.4727-10.582 4.1758-21.664h-12.484zm32.816 0c0.62891 4.3867 1.4492 7.7266 2.3984 10.035 1.918 4.6523 3.6328 4.2344 5.4531-0.26172 0.9375-2.3164 1.6797-5.5781 2.0664-9.7734h-9.9219zm83.676 4.3984c0 2.2109-3.3594 2.2109-3.3594 0v-12.152c0-2.2109 3.3594-2.2109 3.3594 0zm10.242 9.0078c0 2.2109-3.3594 2.2109-3.3594 0v-30.172c0-2.2109 3.3594-2.2109 3.3594 0zm10.242-4.1484c0 2.2109-3.3594 2.2109-3.3594 0v-21.875c0-2.2109 3.3594-2.2109 3.3594 0zm10.242 13.082c0 2.2109-3.3594 2.2109-3.3594 0v-48.035c0-2.2109 3.3594-2.2109 3.3594 0zm51.219-17.941c0 2.2109-3.3594 2.2109-3.3594 0v-12.152c0-2.2109 3.3594-2.2109 3.3594 0zm-10.242 9.0078c0 2.2109-3.3594 2.2109-3.3594 0v-30.172c0-2.2109 3.3594-2.2109 3.3594 0zm-10.242-4.1484c0 2.2109-3.3594 2.2109-3.3594 0v-21.875c0-2.2109 3.3594-2.2109 3.3594 0zm-10.242 13.082c0 2.2109-3.3594 2.2109-3.3594 0v-48.035c0-2.2109 3.3594-2.2109 3.3594 0zm-10.242 9.2031c0 2.2109-3.3594 2.2109-3.3594 0v-66.441c0-2.2109 3.3594-2.2109 3.3594 0zm113.75-31.539c0.39062 4.1953 1.1289 7.457 2.0664 9.7734 1.8203 4.4961 3.5391 4.9141 5.4531 0.26172 0.95312-2.3086 1.7695-5.6484 2.3984-10.035h-9.9219zm30.254 0c0.70312 11.078 2.2695 18.332 4.1758 21.664 1.1055 1.9336 1.5898 1.9727 2.8125 0.09375 2.0938-3.2148 4.0977-10.41 5.5-21.754h-12.484zm35.598 0c0.75 7.6641 1.25 15.582 2.7891 23.117 2.9883 14.609 8.0508 12.172 10.887-0.82813 1.4141-6.4727 2.2656-14.668 2.9609-22.285h-16.641zm-3.7227-3.3594c-0.65625-6.1094-1.375-12.605-2.4102-17.777-2.8867-14.445-7.4023-12.289-10.453 0.53125-1.3438 5.6523-2.1875 12.285-2.7578 17.246zm-35.418 0c-0.23438-4.4141-0.83984-22.211-6.2969-21.598-3.9453 0.44531-5.8008 14.41-6.6797 21.598zm-30.32 0c-0.17969-2.457-0.35547-11.441-3.6719-11.785-2.0977-0.21484-4.1094 2.6797-4.9688 4.2227-1.8711 3.3672-3.6758 5.8203-5.9297 7.5625zm-63.594-60.273h-95.906c-7.6953 0-14 6.3047-14 14v95.906c0 7.6953 6.3047 14 14 14h95.906c7.6953 0 14-6.3047 14-14v-95.906c0-7.6953-6.3047-14-14-14zm143.68 161.59c1.043-1.043 2.625 0.54297 1.582 1.582l-22.621 22.621c-1.043 1.043-2.625-0.54297-1.582-1.582zm-0.34375 13.062c1.043-1.043 2.625 0.54297 1.582 1.582l-9.8047 9.8047c-1.043 1.043-2.625-0.54297-1.582-1.582zm-399.48-183.73c0 3.6836-5.6016 3.6836-5.6016 0v-58.082c0-7.707 6.293-14 14-14h399.58c7.707 0 14 6.293 14 14v58.465c0 3.6836-5.6016 3.6836-5.6016 0v-58.465c0-4.6133-3.7852-8.3984-8.3984-8.3984h-399.58c-4.6133 0-8.3984 3.7852-8.3984 8.3984zm271.32 214.14c-2.1484 7.0742-8.8789 7.2344-15.09 7.2344h-85.02c-6.293 0-13.07-0.21484-15.203-7.2344h-196.15c-3.9648 0-4.5859 0.67969-4.0625 4.8359 0.22656 1.8008 1.1914 3.332 4.7852 4.75 7.7344 3.0508 18.586 3.125 26.895 3.125h445.45c8.3086 0 19.16-0.078125 26.895-3.125 3.7656-1.4844 4.6445-3.0977 4.8125-5.0078 0.35938-4.1094-0.14062-4.5781-4.0898-4.5781h-189.23zm-111.74 0c1.8438 4.1875 7.5742 3.875 11.496 3.875h85.195c3.8438 0 9.6406 0.28516 11.473-3.875h-108.17z"/>
  <use x="70" y="560.167969" xlink:href="#x"/>
  <use x="70.042969" y="560.167969" xlink:href="#c"/>
  <use x="70.070312" y="560.167969" xlink:href="#a"/>
  <use x="70.105469" y="560.167969" xlink:href="#b"/>
  <use x="70.144531" y="560.167969" xlink:href="#e"/>
  <use x="70.171875" y="560.167969" xlink:href="#a"/>
  <use x="70.210938" y="560.167969" xlink:href="#i"/>
  <use x="70.269531" y="560.167969" xlink:href="#m"/>
  <use x="70.308594" y="560.167969" xlink:href="#h"/>
  <use x="70.363281" y="560.167969" xlink:href="#l"/>
  <use x="70.414063" y="560.167969" xlink:href="#w"/>
  <use x="70.433594" y="560.167969" xlink:href="#a"/>
  <use x="70.46875" y="560.167969" xlink:href="#k"/>
  <use x="70.507812" y="560.167969" xlink:href="#g"/>
  <use x="70.539062" y="560.167969" xlink:href="#b"/>
  <use x="70.578125" y="560.167969" xlink:href="#f"/>
  <use x="70.617188" y="560.167969" xlink:href="#i"/>
  <use x="70.65625" y="560.167969" xlink:href="#c"/>
  <use x="70.707031" y="560.167969" xlink:href="#j"/>
  <use x="70.746094" y="560.167969" xlink:href="#b"/>
  <use x="70.785156" y="560.167969" xlink:href="#f"/>
  <use x="70.824219" y="560.167969" xlink:href="#b"/>
  <use x="70.863281" y="560.167969" xlink:href="#g"/>
  <use x="70.894531" y="560.167969" xlink:href="#d"/>
  <use x="70.933594" y="560.167969" xlink:href="#v"/>
  <use x="70.96875" y="560.167969" xlink:href="#g"/>
  <use x="71.003906" y="560.167969" xlink:href="#k"/>
  <use x="71.039062" y="560.167969" xlink:href="#h"/>
  <use x="71.078125" y="560.167969" xlink:href="#u"/>
  <use x="70" y="560.222656" xlink:href="#t"/>
  <use x="70.023438" y="560.222656" xlink:href="#c"/>
  <use x="70.050781" y="560.222656" xlink:href="#d"/>
  <use x="70.089844" y="560.222656" xlink:href="#s"/>
  <use x="70.167969" y="560.222656" xlink:href="#e"/>
  <use x="70.195313" y="560.222656" xlink:href="#r"/>
  <use x="70.234375" y="560.222656" xlink:href="#a"/>
  <use x="70.292969" y="560.222656" xlink:href="#q"/>
  <use x="70.339844" y="560.222656" xlink:href="#d"/>
  <use x="70.378906" y="560.222656" xlink:href="#p"/>
  <use x="70.417969" y="560.222656" xlink:href="#f"/>
  <use x="70.476562" y="560.222656" xlink:href="#j"/>
  <use x="70.519531" y="560.222656" xlink:href="#c"/>
  <use x="70.546875" y="560.222656" xlink:href="#d"/>
  <use x="70.585938" y="560.222656" xlink:href="#o"/>
  <use x="70.601562" y="560.222656" xlink:href="#a"/>
  <use x="70.640625" y="560.222656" xlink:href="#n"/>
  <use x="70.675781" y="560.222656" xlink:href="#e"/>
 </g>
</svg>
